<?xml version="1.0" encoding="utf-8"?>
<!-- Generator: Adobe Illustrator 22.0.0, SVG Export Plug-In . SVG Version: 6.00 Build 0)  -->
<svg version="1.1" id="Capa_1" xmlns="http://www.w3.org/2000/svg" xmlns:xlink="http://www.w3.org/1999/xlink" x="0px" y="0px"
	 viewBox="0 0 182.5 41" style="enable-background:new 0 0 182.5 41;" xml:space="preserve">
<g>
	<path style="fill:#00A7E1;" d="M51,15.1c0.7,0,1.4,0.1,1.9,0.3c0.5,0.2,1,0.3,1.5,0.3c0.5,0,0.7-0.2,0.7-0.5h0.2l0.2,3.5h-0.2
		c0-0.2-0.1-0.5-0.2-0.9s-0.3-0.7-0.6-1.1c-0.3-0.4-0.7-0.7-1.3-1c-0.6-0.3-1.3-0.4-2.2-0.4c-1.6,0-2.3,0.5-2.3,1.6
		c0,1,0.5,1.9,1.4,2.7l4.4,3.7c1.6,1.1,2.3,2.4,2.3,3.8c0,1.2-0.7,2.2-2.1,2.9c-1.2,0.6-2.6,0.9-4.4,0.9c-1.1,0-2.1-0.3-3-0.8
		c-0.2-0.2-0.4-0.2-0.6-0.2c-0.3,0-0.6,0.2-0.7,0.6c0,0.1-0.1,0.2-0.1,0.4h-0.2l0.1-3.6H46c0,0.2,0,0.4,0.1,0.7
		c0.2,0.6,0.6,1.2,1.2,1.8c0.3,0.3,0.7,0.5,1.3,0.7c0.5,0.2,1.1,0.3,1.8,0.3c0.8,0,1.5-0.2,2-0.6c0.5-0.4,0.8-1,0.8-1.6
		c0-1-0.3-1.8-1-2.3l-4.4-3.7c-1.4-1.1-2-2.4-2-3.8c0-1.1,0.6-2,1.7-2.7C48.4,15.4,49.6,15.1,51,15.1z"/>
	<path style="fill:#00A7E1;" d="M63.7,31c-2.1,0-3.7-0.5-4.8-1.6c-1.1-1.1-1.7-2.6-1.7-4.5c0-1.9,0.6-3.4,1.7-4.5
		c1.1-1.1,2.7-1.6,4.8-1.6s3.6,0.5,4.8,1.6c1.1,1.1,1.7,2.6,1.7,4.5c0,1.9-0.6,3.4-1.7,4.5C67.4,30.4,65.8,31,63.7,31z M63.7,30.7
		c1.2,0,1.9-0.4,2.3-1.2c0.3-0.8,0.5-2.4,0.5-4.6s-0.2-3.8-0.5-4.6c-0.3-0.8-1.1-1.2-2.3-1.2c-1.3,0-2.1,0.5-2.4,1.5
		c-0.2,0.8-0.3,2.3-0.3,4.3s0.1,3.5,0.3,4.3C61.6,30.2,62.4,30.7,63.7,30.7z"/>
	<path style="fill:#00A7E1;" d="M75.7,15.2V29c0,1.1,0.6,1.6,1.8,1.6v0.2h-7.4v-0.2c1.2,0,1.8-0.5,1.8-1.6V15.2
		c0-1.1-0.6-1.6-1.8-1.6v-0.2h4.6C75.3,13.4,75.7,14,75.7,15.2z"/>
	<path style="fill:#00A7E1;" d="M83,33.6c0,1.1,0.6,1.6,1.8,1.6v0.2h-7.4v-0.2c1.2,0,1.8-0.5,1.8-1.6V20.7c0-1.1-0.6-1.6-1.8-1.6
		v-0.2h4.6c0.1,0,0.3,0.1,0.5,0.4c0.2,0.2,0.3,0.4,0.3,0.4c0.8-0.6,1.6-0.8,2.4-0.8c1.8,0,3.3,0.5,4.3,1.6c1.1,1.1,1.6,2.6,1.6,4.5
		c0,1.9-0.5,3.4-1.6,4.5c-1.1,1.1-2.5,1.6-4.4,1.6c-0.8,0-1.5-0.3-2.3-0.8V33.6z M87.6,24.9c0-2.6-0.1-4.1-0.3-4.5
		c-0.4-0.9-1-1.3-2-1.3c-0.8,0-1.6,0.3-2.3,0.9c0,0.3,0,0.6,0,0.9v9.1c0.8,0.6,1.5,0.8,2.3,0.8c1,0,1.7-0.4,2-1.3
		C87.5,28.9,87.6,27.4,87.6,24.9z"/>
	<path style="fill:#00A7E1;" d="M96.8,15.2V29c0,1.1,0.6,1.6,1.8,1.6v0.2h-7.4v-0.2c1.2,0,1.8-0.5,1.8-1.6V15.2
		c0-1.1-0.6-1.6-1.8-1.6v-0.2h4.6C96.5,13.4,96.8,14,96.8,15.2z"/>
	<path style="fill:#00A7E1;" d="M113.6,30.8H109c-0.2,0-0.3-0.1-0.5-0.4c-0.2-0.2-0.3-0.4-0.3-0.4c-0.8,0.6-1.7,0.9-2.8,0.9
		c-1.9,0-3.5-0.4-4.7-1.3c-1.2-0.9-1.8-1.9-1.8-2.9s0.6-2,1.7-2.9c1.2-0.8,2.7-1.3,4.7-1.3c0.9,0,1.9,0.2,2.8,0.6v-0.6
		c0-2.4-1-3.6-3-3.6c-1.3,0-2.5,0.3-3.7,1l-0.1-0.2c1.2-0.7,2.5-1,3.8-1c4.4,0,6.7,2,6.7,6.1V29c0,1.1,0.6,1.6,1.8,1.6V30.8z
		 M108,23.4c-0.9-0.4-1.8-0.6-2.8-0.6c-1.1,0-1.9,0.4-2.4,1.3c-0.2,0.4-0.4,1.3-0.4,2.6c0,1.6,0.2,2.7,0.6,3.2
		c0.5,0.6,1.2,0.9,2.2,0.9c1.2,0,2.1-0.3,2.8-0.9c0-0.9,0-1.9,0-2.7V23.4z"/>
	<path style="fill:#00A7E1;" d="M118.2,20.6l2.7,6.5l2.6-6.5c0.1-0.3,0.2-0.5,0.2-0.7c0-0.5-0.5-0.7-1.4-0.7v-0.2h3v0.2
		c-0.7,0-1.2,0.5-1.6,1.6l-2.7,6.8l-1.3,3.2l-1.3,3.2c-0.5,1.1-1.2,1.7-2,1.7c-0.5,0-0.9-0.2-1.3-0.5c-0.4-0.4-0.5-0.8-0.5-1.3
		s0.2-0.9,0.5-1.3c0.4-0.4,0.8-0.5,1.3-0.5c0.5,0,0.9,0.2,1.3,0.5c0.3,0.3,0.6,0.4,0.7,0.4c0.1,0,0.2-0.1,0.2-0.2l0.7-1.9h-0.5
		c-0.3,0-0.5-0.1-0.6-0.3c0,0-0.2-0.5-0.6-1.4l-3.4-8.5c-0.3-0.7-0.6-1.2-0.8-1.4c-0.2-0.1-0.6-0.2-1.1-0.2v-0.2h4.4
		C117.3,18.9,117.7,19.5,118.2,20.6z"/>
</g>
<g>
	<g>
		<path style="fill:#DE8000;" d="M131.3,30.2h1.9v0.3H131V27h2.2v0.3h-1.8v1.2h1.7v0.3h-1.7V30.2z"/>
		<path style="fill:#DE8000;" d="M135.5,28.4l1-1.4h0.4l-1.2,1.7l1.3,1.8h-0.4l-1.1-1.6l-1.1,1.6H134l1.3-1.8l-1.2-1.7h0.4
			L135.5,28.4z"/>
		<path style="fill:#DE8000;" d="M138.1,27h1c0.2,0,0.3,0,0.5,0.1c0.1,0,0.3,0.1,0.4,0.2c0.1,0.1,0.2,0.2,0.2,0.3
			c0.1,0.1,0.1,0.3,0.1,0.4c0,0.2,0,0.3-0.1,0.4c-0.1,0.1-0.1,0.2-0.2,0.3c-0.1,0.1-0.2,0.1-0.4,0.2c-0.1,0-0.3,0.1-0.5,0.1h-0.6
			v1.6h-0.4V27z M138.4,28.6h0.6c0.3,0,0.5-0.1,0.6-0.2c0.1-0.1,0.2-0.3,0.2-0.5c0-0.2-0.1-0.4-0.2-0.5c-0.2-0.1-0.4-0.2-0.6-0.2
			h-0.6V28.6z"/>
		<path style="fill:#DE8000;" d="M144.9,28.7c0,0.3,0,0.5-0.1,0.7c-0.1,0.2-0.2,0.4-0.4,0.6c-0.2,0.2-0.4,0.3-0.6,0.4
			c-0.2,0.1-0.5,0.1-0.7,0.1c-0.3,0-0.5,0-0.7-0.1c-0.2-0.1-0.4-0.2-0.6-0.4c-0.2-0.2-0.3-0.4-0.4-0.6c-0.1-0.2-0.1-0.5-0.1-0.7
			c0-0.3,0-0.5,0.1-0.7c0.1-0.2,0.2-0.4,0.4-0.6c0.2-0.2,0.4-0.3,0.6-0.4s0.5-0.1,0.7-0.1c0.3,0,0.5,0,0.7,0.1s0.4,0.2,0.6,0.4
			c0.2,0.2,0.3,0.4,0.4,0.6C144.9,28.2,144.9,28.5,144.9,28.7z M144.5,28.7c0-0.2,0-0.4-0.1-0.6c-0.1-0.2-0.2-0.3-0.3-0.5
			c-0.1-0.1-0.3-0.3-0.5-0.3c-0.2-0.1-0.4-0.1-0.6-0.1c-0.2,0-0.4,0-0.6,0.1c-0.2,0.1-0.3,0.2-0.5,0.3c-0.1,0.1-0.2,0.3-0.3,0.5
			c-0.1,0.2-0.1,0.4-0.1,0.6c0,0.2,0,0.4,0.1,0.6c0.1,0.2,0.2,0.3,0.3,0.5c0.1,0.1,0.3,0.2,0.5,0.3c0.2,0.1,0.4,0.1,0.6,0.1
			c0.2,0,0.4,0,0.6-0.1c0.2-0.1,0.3-0.2,0.5-0.3c0.1-0.1,0.2-0.3,0.3-0.5C144.5,29.1,144.5,28.9,144.5,28.7z"/>
		<path style="fill:#DE8000;" d="M146.5,30.5h-0.4V27h1c0.2,0,0.3,0,0.5,0c0.1,0,0.3,0.1,0.4,0.2c0.1,0.1,0.2,0.2,0.2,0.3
			c0.1,0.1,0.1,0.3,0.1,0.4c0,0.1,0,0.2-0.1,0.4c0,0.1-0.1,0.2-0.2,0.3c-0.1,0.1-0.2,0.1-0.3,0.2c-0.1,0-0.2,0.1-0.4,0.1l1,1.7h-0.4
			l-1-1.6h-0.6V30.5z M146.5,28.5h0.6c0.3,0,0.5-0.1,0.7-0.2c0.2-0.1,0.2-0.3,0.2-0.5c0-0.1,0-0.2-0.1-0.3c0-0.1-0.1-0.1-0.2-0.2
			c-0.1,0-0.2-0.1-0.3-0.1c-0.1,0-0.2,0-0.4,0h-0.6V28.5z"/>
		<path style="fill:#DE8000;" d="M150.7,30.5h-0.4v-3.2h-1.2V27h2.7v0.3h-1.2V30.5z"/>
		<path style="fill:#DE8000;" d="M156.6,29.7l0.8,0.8h-0.5l-0.5-0.5c-0.1,0.2-0.3,0.3-0.5,0.4c-0.2,0.1-0.4,0.1-0.6,0.1
			c-0.1,0-0.3,0-0.4-0.1s-0.2-0.1-0.3-0.2c-0.1-0.1-0.2-0.2-0.2-0.3c-0.1-0.1-0.1-0.3-0.1-0.4c0-0.1,0-0.3,0.1-0.4
			c0-0.1,0.1-0.2,0.2-0.3c0.1-0.1,0.2-0.2,0.3-0.2c0.1-0.1,0.2-0.1,0.3-0.2c-0.1-0.1-0.1-0.1-0.2-0.2c-0.1-0.1-0.1-0.1-0.1-0.2
			c0-0.1-0.1-0.1-0.1-0.2c0-0.1,0-0.2,0-0.2c0-0.1,0-0.2,0.1-0.4c0-0.1,0.1-0.2,0.2-0.3c0.1-0.1,0.2-0.1,0.3-0.2
			c0.1,0,0.2-0.1,0.3-0.1c0.1,0,0.2,0,0.3,0.1c0.1,0,0.2,0.1,0.3,0.2c0.1,0.1,0.1,0.2,0.2,0.2c0,0.1,0.1,0.2,0.1,0.3
			c0,0.1,0,0.2-0.1,0.3c0,0.1-0.1,0.2-0.2,0.2c-0.1,0.1-0.2,0.1-0.3,0.2c-0.1,0.1-0.2,0.1-0.3,0.2l0.8,0.8l0.5-0.9h0.4L156.6,29.7z
			 M155.2,28.8c-0.2,0.1-0.4,0.2-0.5,0.3c-0.1,0.1-0.2,0.3-0.2,0.5c0,0.1,0,0.2,0.1,0.3c0,0.1,0.1,0.2,0.2,0.2
			c0.1,0.1,0.1,0.1,0.2,0.1c0.1,0,0.2,0,0.3,0c0.2,0,0.4,0,0.5-0.1c0.1-0.1,0.2-0.2,0.4-0.4L155.2,28.8z M156,27.7
			c0-0.1,0-0.3-0.1-0.4c-0.1-0.1-0.2-0.1-0.4-0.1c-0.2,0-0.3,0-0.4,0.1c-0.1,0.1-0.1,0.2-0.1,0.4c0,0.1,0,0.1,0,0.2
			c0,0.1,0.1,0.1,0.1,0.2c0,0.1,0.1,0.1,0.1,0.2c0,0,0.1,0.1,0.1,0.1c0.1,0,0.2-0.1,0.2-0.1c0.1,0,0.1-0.1,0.2-0.2
			c0.1-0.1,0.1-0.1,0.1-0.2C156,27.8,156,27.8,156,27.7z"/>
		<path style="fill:#DE8000;" d="M160.5,30.5h-0.4V27h0.4V30.5z"/>
		<path style="fill:#DE8000;" d="M163.7,29.9L163.7,29.9l1.2-2.9h0.5v3.5H165v-3h0l-1.3,3h-0.2l-1.3-3h0v3h-0.4V27h0.5L163.7,29.9z"
			/>
		<path style="fill:#DE8000;" d="M166.8,27h1c0.2,0,0.3,0,0.5,0.1c0.1,0,0.3,0.1,0.4,0.2c0.1,0.1,0.2,0.2,0.2,0.3
			c0.1,0.1,0.1,0.3,0.1,0.4c0,0.2,0,0.3-0.1,0.4c-0.1,0.1-0.1,0.2-0.2,0.3c-0.1,0.1-0.2,0.1-0.4,0.2c-0.1,0-0.3,0.1-0.5,0.1h-0.6
			v1.6h-0.4V27z M167.2,28.6h0.6c0.3,0,0.5-0.1,0.6-0.2c0.1-0.1,0.2-0.3,0.2-0.5c0-0.2-0.1-0.4-0.2-0.5c-0.2-0.1-0.4-0.2-0.6-0.2
			h-0.6V28.6z"/>
		<path style="fill:#DE8000;" d="M173.6,28.7c0,0.3,0,0.5-0.1,0.7c-0.1,0.2-0.2,0.4-0.4,0.6c-0.2,0.2-0.4,0.3-0.6,0.4
			c-0.2,0.1-0.5,0.1-0.7,0.1c-0.3,0-0.5,0-0.7-0.1c-0.2-0.1-0.4-0.2-0.6-0.4c-0.2-0.2-0.3-0.4-0.4-0.6c-0.1-0.2-0.1-0.5-0.1-0.7
			c0-0.3,0-0.5,0.1-0.7c0.1-0.2,0.2-0.4,0.4-0.6c0.2-0.2,0.4-0.3,0.6-0.4c0.2-0.1,0.5-0.1,0.7-0.1c0.3,0,0.5,0,0.7,0.1
			c0.2,0.1,0.4,0.2,0.6,0.4c0.2,0.2,0.3,0.4,0.4,0.6C173.6,28.2,173.6,28.5,173.6,28.7z M173.3,28.7c0-0.2,0-0.4-0.1-0.6
			c-0.1-0.2-0.2-0.3-0.3-0.5c-0.1-0.1-0.3-0.3-0.5-0.3s-0.4-0.1-0.6-0.1c-0.2,0-0.4,0-0.6,0.1c-0.2,0.1-0.3,0.2-0.5,0.3
			c-0.1,0.1-0.2,0.3-0.3,0.5c-0.1,0.2-0.1,0.4-0.1,0.6c0,0.2,0,0.4,0.1,0.6c0.1,0.2,0.2,0.3,0.3,0.5c0.1,0.1,0.3,0.2,0.5,0.3
			c0.2,0.1,0.4,0.1,0.6,0.1c0.2,0,0.4,0,0.6-0.1c0.2-0.1,0.3-0.2,0.5-0.3c0.1-0.1,0.2-0.3,0.3-0.5C173.2,29.1,173.3,28.9,173.3,28.7
			z"/>
		<path style="fill:#DE8000;" d="M175.2,30.5h-0.4V27h1c0.2,0,0.3,0,0.5,0c0.1,0,0.3,0.1,0.4,0.2c0.1,0.1,0.2,0.2,0.2,0.3
			c0.1,0.1,0.1,0.3,0.1,0.4c0,0.1,0,0.2-0.1,0.4c0,0.1-0.1,0.2-0.2,0.3c-0.1,0.1-0.2,0.1-0.3,0.2c-0.1,0-0.2,0.1-0.4,0.1l1,1.7h-0.4
			l-1-1.6h-0.6V30.5z M175.2,28.5h0.6c0.3,0,0.5-0.1,0.7-0.2c0.2-0.1,0.2-0.3,0.2-0.5c0-0.1,0-0.2-0.1-0.3c0-0.1-0.1-0.1-0.2-0.2
			c-0.1,0-0.2-0.1-0.3-0.1c-0.1,0-0.2,0-0.4,0h-0.6V28.5z"/>
		<path style="fill:#DE8000;" d="M179.4,30.5H179v-3.2h-1.2V27h2.7v0.3h-1.2V30.5z"/>
	</g>
</g>
<g>
	<linearGradient id="SVGID_1_" gradientUnits="userSpaceOnUse" x1="28.4289" y1="36.0745" x2="12.8886" y2="9.158">
		<stop  offset="0" style="stop-color:#1680B9"/>
		<stop  offset="1" style="stop-color:#20376A"/>
	</linearGradient>
	<path style="fill:url(#SVGID_1_);" d="M17.5,39.4c0,0,11.9-3,9.7-10.3c-0.8-2.7-2.6-4.1-4.8-5.2c-2.5-1.2-10.1-2.8-12.9-5.9
		c-0.5-0.6-1.9-1.8-1.2-4c1.2-3.5,7.5-7.3,13.7-8.3c0,0-5.9,3.3-0.6,6.6c5.3,3.3,16.4,9.6,12.1,18.2C29.2,39.1,17.5,39.4,17.5,39.4z
		"/>
	<linearGradient id="SVGID_2_" gradientUnits="userSpaceOnUse" x1="3.1541" y1="28.4055" x2="23.6065" y2="28.4055">
		<stop  offset="0" style="stop-color:#FECB09"/>
		<stop  offset="1" style="stop-color:#ED6F26"/>
	</linearGradient>
	<path style="fill:url(#SVGID_2_);" d="M23.6,31.7c0.2,1.6-0.5,3.2-1.6,4.3c-1.1,1.1-2.6,1.7-4.2,2.1c-4.5,1-9.6-1-12.3-4.7
		c-2.7-3.7-4-11,1.5-14.8c-1.8,2.3-3,5.6-1.5,8.6c1,2.2,3.2,3.8,5.6,3.7c3.2-0.1,5.8-3.2,8.9-2.7C21.8,28.4,23.3,29.9,23.6,31.7z"/>
	<path style="fill:#419634;" d="M22.3,11c-0.8-1-0.9-2.3-0.3-3.3c0.1-0.1,0.1-0.2,0.2-0.3c1.3-1.6,5.9-1.3,6-6c0,0,2.6,7.9-2.4,10.2
		C24,12.3,23,11.8,22.3,11z"/>
	<linearGradient id="SVGID_3_" gradientUnits="userSpaceOnUse" x1="3.7539" y1="30.1559" x2="14.3053" y2="30.1559">
		<stop  offset="0" style="stop-color:#FFD401"/>
		<stop  offset="1" style="stop-color:#FFD401;stop-opacity:0"/>
	</linearGradient>
	<path style="fill:url(#SVGID_3_);" d="M4,23.3c0,0-0.8,9,8.2,11c4.8,1.1-0.1,2.6-0.1,2.6S2.1,34.3,4,23.3z"/>
	
		<linearGradient id="SVGID_4_" gradientUnits="userSpaceOnUse" x1="1378.2554" y1="-778.0376" x2="1375.0721" y2="-781.2988" gradientTransform="matrix(-0.3373 1.3756 1.0822 0.7544 1334.3311 -1298.312)">
		<stop  offset="0.2724" style="stop-color:#419634"/>
		<stop  offset="1" style="stop-color:#FFFFFF;stop-opacity:0"/>
	</linearGradient>
	<path style="fill:url(#SVGID_4_);" d="M23.9,8.8c-0.4-0.5-0.4-1.1,0-1.6c0,0,0.1-0.1,0.1-0.1c0.9-0.8,3.6-0.7,4-3
		c0,0,1.1,3.9-2.1,5C24.8,9.5,24.2,9.2,23.9,8.8z"/>
</g>
</svg>
