<?xml version="1.0" encoding="utf-8"?>
<!-- Generator: Adobe Illustrator 22.1.0, SVG Export Plug-In . SVG Version: 6.00 Build 0)  -->
<svg version="1.1" id="Capa_1" xmlns="http://www.w3.org/2000/svg" xmlns:xlink="http://www.w3.org/1999/xlink" x="0px" y="0px"
	 viewBox="0 0 124.5 41" style="enable-background:new 0 0 124.5 41;" xml:space="preserve">
<style type="text/css">
	.st0{fill:#00A7E1;}
	.st1{fill:url(#SVGID_1_);}
	.st2{fill:url(#SVGID_2_);}
	.st3{fill:#419634;}
	.st4{fill:url(#SVGID_3_);}
	.st5{fill:url(#SVGID_4_);}
	.st6{fill:#DE8000;}
</style>
<g>
	<path class="st0" d="M48.7,10.7c0.7,0,1.3,0.1,1.8,0.3c0.5,0.2,0.9,0.3,1.4,0.3c0.5,0,0.7-0.2,0.7-0.5h0.2l0.2,3.3h-0.2
		c0-0.2-0.1-0.5-0.2-0.9c-0.1-0.4-0.3-0.7-0.6-1s-0.7-0.7-1.2-0.9c-0.6-0.3-1.2-0.4-2.1-0.4c-1.5,0-2.2,0.5-2.2,1.5
		c0,0.9,0.5,1.8,1.3,2.6l4.2,3.5c1.5,1,2.2,2.3,2.2,3.6c0,1.1-0.7,2.1-2,2.7c-1.1,0.6-2.5,0.9-4.2,0.9c-1,0-2-0.3-2.8-0.8
		c-0.2-0.2-0.4-0.2-0.6-0.2c-0.3,0-0.6,0.2-0.7,0.6c0,0.1-0.1,0.2-0.1,0.4h-0.2l0.1-3.4H44c0,0.2,0,0.4,0.1,0.7
		c0.2,0.6,0.6,1.1,1.1,1.7c0.3,0.3,0.7,0.5,1.2,0.7c0.5,0.2,1,0.3,1.7,0.3c0.8,0,1.4-0.2,1.9-0.6c0.5-0.4,0.8-0.9,0.8-1.5
		c0-0.9-0.3-1.7-0.9-2.2l-4.2-3.5c-1.3-1-1.9-2.3-1.9-3.6c0-1,0.6-1.9,1.6-2.6C46.3,11,47.4,10.7,48.7,10.7z"/>
	<path class="st0" d="M60.7,25.7c-2,0-3.5-0.5-4.5-1.5c-1-1-1.6-2.5-1.6-4.3c0-1.8,0.6-3.2,1.6-4.3c1-1,2.6-1.5,4.5-1.5
		c2,0,3.4,0.5,4.5,1.5c1,1,1.6,2.5,1.6,4.3c0,1.8-0.6,3.2-1.6,4.3C64.2,25.2,62.7,25.7,60.7,25.7z M60.7,25.5c1.1,0,1.8-0.4,2.2-1.1
		c0.3-0.8,0.5-2.3,0.5-4.4s-0.2-3.6-0.5-4.4c-0.3-0.8-1-1.1-2.2-1.1c-1.2,0-2,0.5-2.3,1.4c-0.2,0.8-0.3,2.2-0.3,4.1
		c0,1.9,0.1,3.3,0.3,4.1C58.7,25,59.5,25.5,60.7,25.5z"/>
	<path class="st0" d="M72.1,10.8v13.1c0,1,0.6,1.5,1.7,1.5v0.2h-7v-0.2c1.1,0,1.7-0.5,1.7-1.5V10.8c0-1-0.6-1.5-1.7-1.5V9.1h4.4
		C71.7,9.1,72.1,9.7,72.1,10.8z"/>
	<path class="st0" d="M79,28.2c0,1,0.6,1.5,1.7,1.5v0.2h-7v-0.2c1.1,0,1.7-0.5,1.7-1.5V16c0-1-0.6-1.5-1.7-1.5v-0.2H78
		c0.1,0,0.3,0.1,0.5,0.4c0.2,0.2,0.3,0.4,0.3,0.4c0.8-0.6,1.5-0.8,2.3-0.8c1.7,0,3.1,0.5,4.1,1.5c1,1,1.5,2.5,1.5,4.3
		c0,1.8-0.5,3.2-1.5,4.3c-1,1-2.4,1.5-4.2,1.5c-0.8,0-1.4-0.3-2.2-0.8v3.1H79z M83.3,20c0-2.5-0.1-3.9-0.3-4.3
		c-0.4-0.9-0.9-1.2-1.9-1.2c-0.8,0-1.5,0.3-2.2,0.9c0,0.3,0,0.6,0,0.9v8.6c0.8,0.6,1.4,0.8,2.2,0.8c0.9,0,1.6-0.4,1.9-1.2
		C83.2,23.8,83.3,22.3,83.3,20z"/>
	<path class="st0" d="M92,10.8v13.1c0,1,0.6,1.5,1.7,1.5v0.2h-7v-0.2c1.1,0,1.7-0.5,1.7-1.5V10.8c0-1-0.6-1.5-1.7-1.5V9.1h4.4
		C91.8,9.1,92,9.7,92,10.8z"/>
	<path class="st0" d="M107.9,25.6h-4.4c-0.2,0-0.3-0.1-0.5-0.4c-0.2-0.2-0.3-0.4-0.3-0.4c-0.8,0.6-1.6,0.9-2.6,0.9
		c-1.8,0-3.3-0.4-4.4-1.2c-1.1-0.9-1.7-1.8-1.7-2.7s0.6-1.9,1.6-2.7c1.1-0.8,2.6-1.2,4.4-1.2c0.9,0,1.8,0.2,2.6,0.6v-0.6
		c0-2.3-0.9-3.4-2.8-3.4c-1.2,0-2.4,0.3-3.5,0.9l-0.1-0.2c1.1-0.7,2.4-0.9,3.6-0.9c4.2,0,6.3,1.9,6.3,5.8v4c0,1,0.6,1.5,1.7,1.5
		V25.6z M102.6,18.6c-0.9-0.4-1.7-0.6-2.6-0.6c-1,0-1.8,0.4-2.3,1.2c-0.2,0.4-0.4,1.2-0.4,2.5c0,1.5,0.2,2.6,0.6,3
		c0.5,0.6,1.1,0.9,2.1,0.9c1.1,0,2-0.3,2.6-0.9c0-0.9,0-1.8,0-2.6C102.6,22.2,102.6,18.6,102.6,18.6z"/>
	<path class="st0" d="M112.3,15.9l2.6,6.1l2.5-6.1c0.1-0.3,0.2-0.5,0.2-0.7c0-0.5-0.5-0.7-1.3-0.7v-0.2h2.8v0.2
		c-0.7,0-1.1,0.5-1.5,1.5l-2.6,6.4l-1.2,3l-1.2,3c-0.5,1-1.1,1.6-1.9,1.6c-0.5,0-0.9-0.2-1.2-0.5c-0.4-0.4-0.5-0.8-0.5-1.2
		c0-0.5,0.2-0.9,0.5-1.2c0.4-0.4,0.8-0.5,1.2-0.5s0.9,0.2,1.2,0.5c0.3,0.3,0.6,0.4,0.7,0.4s0.2-0.1,0.2-0.2l0.7-1.8h-0.5
		c-0.3,0-0.5-0.1-0.6-0.3c0,0-0.2-0.5-0.6-1.3l-3.2-8c-0.3-0.7-0.6-1.1-0.8-1.3c-0.2-0.1-0.6-0.2-1-0.2v-0.2h4.2
		C111.4,14.3,111.8,14.9,112.3,15.9z"/>
</g>
<g>
	
		<linearGradient id="SVGID_1_" gradientUnits="userSpaceOnUse" x1="28.3912" y1="5.9164" x2="12.8444" y2="32.8442" gradientTransform="matrix(1 0 0 -1 0 42)">
		<stop  offset="0" style="stop-color:#1680B9"/>
		<stop  offset="1" style="stop-color:#20376A"/>
	</linearGradient>
	<path class="st1" d="M17.5,39.4c0,0,11.9-3,9.7-10.3c-0.8-2.7-2.6-4.1-4.8-5.2c-2.5-1.2-10.1-2.8-12.9-5.9c-0.5-0.6-1.9-1.8-1.2-4
		c1.2-3.5,7.5-7.3,13.7-8.3c0,0-5.9,3.3-0.6,6.6s16.4,9.6,12.1,18.2S17.5,39.4,17.5,39.4z"/>
	
		<linearGradient id="SVGID_2_" gradientUnits="userSpaceOnUse" x1="3.1745" y1="13.5218" x2="23.6341" y2="13.5218" gradientTransform="matrix(1 0 0 -1 0 42)">
		<stop  offset="0" style="stop-color:#FECB09"/>
		<stop  offset="1" style="stop-color:#ED6F26"/>
	</linearGradient>
	<path class="st2" d="M23.6,31.7c0.2,1.6-0.5,3.2-1.6,4.3s-2.6,1.7-4.2,2.1c-4.5,1-9.6-1-12.3-4.7s-4-11,1.5-14.8
		c-1.8,2.3-3,5.6-1.5,8.6c1,2.2,3.2,3.8,5.6,3.7c3.2-0.1,5.8-3.2,8.9-2.7C21.8,28.4,23.3,29.9,23.6,31.7z"/>
	<path class="st3" d="M22.3,11c-0.8-1-0.9-2.3-0.3-3.3c0.1-0.1,0.1-0.2,0.2-0.3c1.3-1.6,5.9-1.3,6-6c0,0,2.6,7.9-2.4,10.2
		C24,12.3,23,11.8,22.3,11z"/>
	
		<linearGradient id="SVGID_3_" gradientUnits="userSpaceOnUse" x1="3.7599" y1="11.9" x2="14.3077" y2="11.9" gradientTransform="matrix(1 0 0 -1 0 42)">
		<stop  offset="0" style="stop-color:#FFD401"/>
		<stop  offset="1" style="stop-color:#FFD401;stop-opacity:0"/>
	</linearGradient>
	<path class="st4" d="M4,23.3c0,0-0.8,9,8.2,11c4.8,1.1-0.1,2.6-0.1,2.6S2.1,34.3,4,23.3z"/>
	
		<linearGradient id="SVGID_4_" gradientUnits="userSpaceOnUse" x1="1187.5637" y1="816.7531" x2="1184.3805" y2="820.0143" gradientTransform="matrix(-0.3373 1.3756 -1.0822 -0.7544 1311.8809 -1006.7768)">
		<stop  offset="0.2724" style="stop-color:#419634"/>
		<stop  offset="1" style="stop-color:#FFFFFF;stop-opacity:0"/>
	</linearGradient>
	<path class="st5" d="M23.9,8.8c-0.4-0.5-0.4-1.1,0-1.6L24,7.1c0.9-0.8,3.6-0.7,4-3c0,0,1.1,3.9-2.1,5C24.8,9.5,24.2,9.2,23.9,8.8z"
		/>
</g>
<g>
	<path class="st6" d="M44.4,34.1h3.4v0.5h-2.8v1.6h2.5v0.5h-2.5v1.6h2.9v0.5h-3.4V34.1z"/>
	<path class="st6" d="M51,36.4l-1.7-2.3h0.6l1.4,1.9l1.4-1.9h0.6l-1.7,2.3l1.8,2.4h-0.6l-1.5-2l-1.5,2h-0.6L51,36.4z"/>
	<path class="st6" d="M55.1,34.1h1.7c0.3,0,0.5,0,0.7,0.1c0.2,0.1,0.4,0.2,0.5,0.3c0.2,0.1,0.3,0.3,0.4,0.5c0.1,0.2,0.1,0.4,0.1,0.6
		v0c0,0.3,0,0.5-0.1,0.7c-0.1,0.2-0.2,0.3-0.4,0.5c-0.2,0.1-0.4,0.2-0.6,0.3c-0.2,0.1-0.5,0.1-0.7,0.1h-1.1v1.6h-0.5V34.1z
		 M56.8,36.7c0.2,0,0.4,0,0.5-0.1c0.2,0,0.3-0.1,0.4-0.2c0.1-0.1,0.2-0.2,0.3-0.3c0.1-0.1,0.1-0.3,0.1-0.4v0c0-0.3-0.1-0.6-0.3-0.8
		c-0.2-0.2-0.5-0.3-0.9-0.3h-1.2v2H56.8z"/>
	<path class="st6" d="M62.5,38.8c-0.4,0-0.7-0.1-1-0.2c-0.3-0.1-0.5-0.3-0.7-0.5c-0.2-0.2-0.4-0.5-0.5-0.8c-0.1-0.3-0.2-0.6-0.2-0.9
		v0c0-0.3,0.1-0.6,0.2-0.9c0.1-0.3,0.3-0.5,0.5-0.8c0.2-0.2,0.5-0.4,0.7-0.5c0.3-0.1,0.6-0.2,1-0.2s0.7,0.1,1,0.2
		c0.3,0.1,0.5,0.3,0.7,0.5c0.2,0.2,0.4,0.5,0.5,0.8c0.1,0.3,0.2,0.6,0.2,0.9c0,0,0,0,0,0c0,0.3-0.1,0.6-0.2,0.9
		c-0.1,0.3-0.3,0.5-0.5,0.8c-0.2,0.2-0.5,0.4-0.7,0.5C63.2,38.8,62.8,38.8,62.5,38.8z M62.5,38.4c0.3,0,0.5,0,0.7-0.1
		c0.2-0.1,0.4-0.2,0.6-0.4c0.2-0.2,0.3-0.4,0.4-0.6c0.1-0.2,0.1-0.5,0.1-0.7v0c0-0.3,0-0.5-0.1-0.7c-0.1-0.2-0.2-0.4-0.4-0.6
		c-0.2-0.2-0.4-0.3-0.6-0.4c-0.2-0.1-0.5-0.2-0.7-0.2c-0.3,0-0.5,0-0.7,0.1c-0.2,0.1-0.4,0.2-0.6,0.4c-0.2,0.2-0.3,0.4-0.4,0.6
		c-0.1,0.2-0.1,0.5-0.1,0.7v0c0,0.3,0,0.5,0.1,0.7c0.1,0.2,0.2,0.4,0.4,0.6c0.2,0.2,0.4,0.3,0.6,0.4C62,38.3,62.2,38.4,62.5,38.4z"
		/>
	<path class="st6" d="M66.7,34.1h2c0.3,0,0.5,0,0.8,0.1c0.2,0.1,0.4,0.2,0.6,0.3c0.1,0.1,0.2,0.2,0.3,0.4c0.1,0.2,0.1,0.3,0.1,0.5v0
		c0,0.2,0,0.4-0.1,0.5c-0.1,0.2-0.1,0.3-0.3,0.4c-0.1,0.1-0.2,0.2-0.4,0.3c-0.2,0.1-0.3,0.1-0.5,0.2l1.4,1.9h-0.6L68.6,37h0h-1.3
		v1.8h-0.5V34.1z M68.7,36.5c0.2,0,0.3,0,0.5-0.1c0.1,0,0.3-0.1,0.4-0.2c0.1-0.1,0.2-0.2,0.2-0.3c0.1-0.1,0.1-0.3,0.1-0.4v0
		c0-0.3-0.1-0.5-0.3-0.7c-0.2-0.2-0.5-0.2-0.9-0.2h-1.4v1.9H68.7z"/>
	<path class="st6" d="M73.5,34.6H72v-0.5h3.6v0.5h-1.6v4.2h-0.5V34.6z"/>
	<path class="st6" d="M82.7,38.1c-0.2,0.2-0.4,0.4-0.7,0.5c-0.2,0.1-0.5,0.2-0.8,0.2c-0.2,0-0.4,0-0.6-0.1c-0.2-0.1-0.3-0.1-0.5-0.3
		c-0.1-0.1-0.2-0.3-0.3-0.4c-0.1-0.2-0.1-0.3-0.1-0.5v0c0-0.3,0.1-0.6,0.3-0.8c0.2-0.2,0.5-0.4,0.8-0.5c-0.2-0.2-0.3-0.4-0.4-0.5
		c-0.1-0.2-0.1-0.3-0.1-0.5v0c0-0.1,0-0.3,0.1-0.4c0.1-0.1,0.1-0.3,0.2-0.4c0.1-0.1,0.2-0.2,0.4-0.2c0.2-0.1,0.3-0.1,0.5-0.1
		c0.2,0,0.3,0,0.4,0.1c0.1,0.1,0.3,0.1,0.4,0.2c0.1,0.1,0.2,0.2,0.2,0.3s0.1,0.3,0.1,0.4v0c0,0.3-0.1,0.5-0.3,0.7
		c-0.2,0.2-0.5,0.4-0.8,0.5l1.1,1.1c0.1-0.1,0.2-0.3,0.3-0.5c0.1-0.2,0.2-0.4,0.3-0.5l0.4,0.2c-0.1,0.2-0.2,0.4-0.3,0.6
		s-0.2,0.4-0.4,0.5l0.8,0.8l-0.4,0.3L82.7,38.1z M81.3,38.4c0.2,0,0.4-0.1,0.6-0.2c0.2-0.1,0.4-0.3,0.5-0.4l-1.2-1.3
		c-0.3,0.1-0.5,0.3-0.7,0.4c-0.1,0.2-0.2,0.4-0.2,0.6v0c0,0.1,0,0.2,0.1,0.3c0,0.1,0.1,0.2,0.2,0.3c0.1,0.1,0.2,0.1,0.3,0.2
		S81.1,38.4,81.3,38.4z M81.4,36c0.3-0.1,0.5-0.2,0.7-0.4c0.2-0.1,0.2-0.3,0.2-0.5v0c0-0.2-0.1-0.3-0.2-0.5
		c-0.1-0.1-0.3-0.2-0.5-0.2c-0.2,0-0.4,0.1-0.5,0.2c-0.1,0.1-0.2,0.3-0.2,0.5v0c0,0.1,0,0.1,0,0.2c0,0.1,0,0.1,0.1,0.2
		c0,0.1,0.1,0.1,0.1,0.2C81.2,35.8,81.3,35.9,81.4,36z"/>
	<path class="st6" d="M88.3,34.1h0.5v4.6h-0.5V34.1z"/>
	<path class="st6" d="M91,34.1h0.5l1.7,2.5l1.7-2.5h0.5v4.6h-0.5V35l-1.7,2.5h0L91.5,35v3.7H91V34.1z"/>
	<path class="st6" d="M97.5,34.1h1.7c0.3,0,0.5,0,0.7,0.1c0.2,0.1,0.4,0.2,0.5,0.3s0.3,0.3,0.4,0.5c0.1,0.2,0.1,0.4,0.1,0.6v0
		c0,0.3,0,0.5-0.1,0.7c-0.1,0.2-0.2,0.3-0.4,0.5c-0.2,0.1-0.4,0.2-0.6,0.3c-0.2,0.1-0.5,0.1-0.7,0.1H98v1.6h-0.5V34.1z M99.2,36.7
		c0.2,0,0.4,0,0.5-0.1c0.2,0,0.3-0.1,0.4-0.2s0.2-0.2,0.3-0.3c0.1-0.1,0.1-0.3,0.1-0.4v0c0-0.3-0.1-0.6-0.3-0.8
		c-0.2-0.2-0.5-0.3-0.9-0.3H98v2H99.2z"/>
	<path class="st6" d="M104.9,38.8c-0.4,0-0.7-0.1-1-0.2c-0.3-0.1-0.5-0.3-0.7-0.5c-0.2-0.2-0.4-0.5-0.5-0.8
		c-0.1-0.3-0.2-0.6-0.2-0.9v0c0-0.3,0.1-0.6,0.2-0.9c0.1-0.3,0.3-0.5,0.5-0.8c0.2-0.2,0.5-0.4,0.7-0.5c0.3-0.1,0.6-0.2,1-0.2
		c0.4,0,0.7,0.1,1,0.2c0.3,0.1,0.5,0.3,0.7,0.5c0.2,0.2,0.4,0.5,0.5,0.8c0.1,0.3,0.2,0.6,0.2,0.9c0,0,0,0,0,0c0,0.3-0.1,0.6-0.2,0.9
		c-0.1,0.3-0.3,0.5-0.5,0.8c-0.2,0.2-0.5,0.4-0.7,0.5C105.5,38.8,105.2,38.8,104.9,38.8z M104.9,38.4c0.3,0,0.5,0,0.7-0.1
		c0.2-0.1,0.4-0.2,0.6-0.4c0.2-0.2,0.3-0.4,0.4-0.6c0.1-0.2,0.1-0.5,0.1-0.7v0c0-0.3,0-0.5-0.1-0.7s-0.2-0.4-0.4-0.6
		c-0.2-0.2-0.4-0.3-0.6-0.4c-0.2-0.1-0.5-0.2-0.7-0.2c-0.3,0-0.5,0-0.7,0.1c-0.2,0.1-0.4,0.2-0.6,0.4c-0.2,0.2-0.3,0.4-0.4,0.6
		c-0.1,0.2-0.1,0.5-0.1,0.7v0c0,0.3,0,0.5,0.1,0.7c0.1,0.2,0.2,0.4,0.4,0.6c0.2,0.2,0.4,0.3,0.6,0.4
		C104.4,38.3,104.6,38.4,104.9,38.4z"/>
	<path class="st6" d="M109.1,34.1h2c0.3,0,0.5,0,0.8,0.1c0.2,0.1,0.4,0.2,0.6,0.3c0.1,0.1,0.2,0.2,0.3,0.4c0.1,0.2,0.1,0.3,0.1,0.5
		v0c0,0.2,0,0.4-0.1,0.5c-0.1,0.2-0.1,0.3-0.3,0.4c-0.1,0.1-0.2,0.2-0.4,0.3c-0.2,0.1-0.3,0.1-0.5,0.2l1.4,1.9h-0.6L111,37h0h-1.3
		v1.8h-0.5V34.1z M111.1,36.5c0.2,0,0.3,0,0.5-0.1c0.1,0,0.3-0.1,0.4-0.2c0.1-0.1,0.2-0.2,0.2-0.3c0.1-0.1,0.1-0.3,0.1-0.4v0
		c0-0.3-0.1-0.5-0.3-0.7c-0.2-0.2-0.5-0.2-0.9-0.2h-1.4v1.9H111.1z"/>
	<path class="st6" d="M115.9,34.6h-1.6v-0.5h3.6v0.5h-1.6v4.2h-0.5V34.6z"/>
</g>
</svg>
