<?xml version="1.0" encoding="utf-8"?>
<!-- Generator: Adobe Illustrator 22.0.0, SVG Export Plug-In . SVG Version: 6.00 Build 0)  -->
<svg version="1.1" id="Capa_1" xmlns="http://www.w3.org/2000/svg" xmlns:xlink="http://www.w3.org/1999/xlink" x="0px" y="0px"
	 viewBox="0 0 50 50" style="enable-background:new 0 0 50 50;" xml:space="preserve">
<g>
	<path style="fill:#FFFFFF;" d="M31,2.4H10.9c-2.1,0-3.8,1.7-3.8,3.8V19v2.4v22.3c0,2.1,1.7,3.8,3.8,3.8h28.2c2.1,0,3.8-1.7,3.8-3.8
		V21.4V19v-4.6L31,2.4z M41.5,43.8c0,1.3-1.1,2.4-2.4,2.4H10.9c-1.3,0-2.4-1.1-2.4-2.4V21.4h33V43.8z M8.5,19V6.2
		c0-1.3,1.1-2.4,2.4-2.4h19.5l0.3,0.3v7.5c0,1.7,1.4,3.1,3.1,3.1h7.3l0.3,0.3v4H8.5z"/>
	<path style="fill:#FFFFFF;" d="M15.6,10c-0.2-0.1-0.4-0.2-0.7-0.2c-0.3,0-0.6-0.1-1-0.1h-1.4v5.1h0.9v-1.7h0.9c0.2,0,0.4,0,0.6-0.1
		s0.4-0.2,0.6-0.3c0.2-0.1,0.3-0.3,0.4-0.6c0.1-0.2,0.2-0.5,0.2-0.9c0-0.3,0-0.6-0.1-0.8S15.8,10.1,15.6,10z M15,12
		c-0.1,0.1-0.4,0.2-0.7,0.2h-0.8v-1.8h0.8c0.2,0,0.3,0,0.5,0c0.1,0,0.2,0.1,0.3,0.1c0.1,0.1,0.1,0.2,0.2,0.3c0,0.1,0,0.2,0,0.4
		C15.2,11.7,15.1,11.9,15,12z"/>
	<path style="fill:#FFFFFF;" d="M20.5,10.4c-0.2-0.2-0.5-0.4-0.8-0.5c-0.3-0.1-0.6-0.2-1-0.2h-1.9v5.1h1.9c0.4,0,0.7-0.1,1-0.2
		c0.3-0.1,0.6-0.3,0.8-0.5s0.4-0.5,0.5-0.8c0.1-0.3,0.2-0.7,0.2-1.1s-0.1-0.7-0.2-1.1C20.9,10.9,20.8,10.6,20.5,10.4z M19.8,13.5
		c-0.3,0.3-0.6,0.4-1.1,0.4h-1v-3.3h1c0.5,0,0.9,0.1,1.1,0.4s0.4,0.7,0.4,1.2S20.1,13.2,19.8,13.5z"/>
	<polygon style="fill:#FFFFFF;" points="22.1,14.8 23,14.8 23,12.6 24.7,12.6 24.7,11.7 23,11.7 23,10.6 25.2,10.6 25.2,9.7 
		22.1,9.7 	"/>
	<rect x="12.8" y="26.7" style="fill:#FFFFFF;" width="13" height="2"/>
	<rect x="12.8" y="30.2" style="fill:#FFFFFF;" width="23.4" height="2"/>
	<rect x="12.8" y="34.5" style="fill:#FFFFFF;" width="13" height="2"/>
	<rect x="12.8" y="38" style="fill:#FFFFFF;" width="13" height="2"/>
	<path style="fill:#FFFFFF;" d="M29,39.8H37v-5.1H29V39.8z M30.1,35.8h5.8v2.8h-5.8V35.8z"/>
</g>
</svg>
