<?xml version="1.0" encoding="utf-8"?>
<!-- Generator: Adobe Illustrator 22.0.0, SVG Export Plug-In . SVG Version: 6.00 Build 0)  -->
<svg version="1.1" id="Capa_1" xmlns="http://www.w3.org/2000/svg" xmlns:xlink="http://www.w3.org/1999/xlink" x="0px" y="0px"
	 viewBox="0 0 50 50" style="enable-background:new 0 0 50 50;" xml:space="preserve">
<path style="fill:#FFFFFF;" d="M41.2,14.6l1.2-1.2l0.8-0.8l0,0l0,0l-4.4-4.4l0,0l0,0l-1.2,1.2l-1,1c-2.4-1.6-5-2.7-7.9-3.2V6
	C29.5,5.4,30,4.8,30,4c0-1.7-2.1-2.9-5-2.9c-2.9,0-5,1.2-5,2.9c0,0.8,0.5,1.5,1.3,2v1.3c-2.9,0.5-5.6,1.6-7.9,3.2l0,0l0,0L12,9.1
	l-0.9-0.8l0,0l-4.4,4.4l0.9,0.9l1.1,1.1C5.8,18.2,4,22.9,4,27.9c0,11.6,9.4,21,21,21c11.6,0,21-9.4,21-21
	C46,22.9,44.2,18.2,41.2,14.6z M43.9,26.6c-0.3-0.2-0.6-0.3-0.9-0.3h-0.8c-0.3-3.4-1.6-6.5-3.7-9.1l1.2-1.2
	C42.1,19,43.6,22.6,43.9,26.6z M39.5,29.5h0.6c-0.7,7.1-6.4,12.8-13.5,13.5v-0.6c0-0.9-0.7-1.6-1.6-1.6c-0.9,0-1.6,0.7-1.6,1.6V43
	c-7.1-0.7-12.8-6.4-13.5-13.5h0.6c0.9,0,1.6-0.7,1.6-1.6s-0.7-1.6-1.6-1.6H9.9c0.7-7.1,6.4-12.7,13.5-13.5v0.6
	c0,0.4,0.2,0.8,0.5,1.1h-0.1v11.5c-0.2,0.2-0.4,0.3-0.6,0.6h-8.7v2.4h8.6c0.4,0.6,1.1,1.1,1.9,1.1c1.2,0,2.2-1,2.2-2.2
	c0-0.8-0.4-1.5-1-1.9V14.6h-0.1c0.3-0.3,0.5-0.7,0.5-1.1v-0.6c7.1,0.7,12.7,6.4,13.5,13.5h-0.6c-0.9,0-1.6,0.7-1.6,1.6
	S38.6,29.5,39.5,29.5z M23.4,9.1c0.1,0,0.2,0,0.3,0c-0.1,0.1-0.1,0.2-0.2,0.4h-0.1V9.1z M26.5,9.4c0-0.1-0.1-0.3-0.2-0.4
	c0.1,0,0.2,0,0.3,0v0.4H26.5z M35.1,11.9l-0.9,0.9l1.4,1.4c-2-1.5-4.3-2.7-6.9-3.2V9.4C31,9.8,33.2,10.7,35.1,11.9z M23.4,6.7
	c0.5,0.1,1,0.1,1.6,0.1s1.1,0,1.6-0.1V7c-0.5,0-1.1-0.1-1.6-0.1c-0.5,0-1.1,0-1.6,0.1V6.7z M21.3,9.4v1.7c-2.5,0.6-4.9,1.7-6.9,3.2
	l1.4-1.4l-0.9-0.9C16.8,10.7,19,9.8,21.3,9.4z M11.5,17.2c-2,2.5-3.3,5.7-3.7,9.1H7.1c-0.3,0-0.7,0.1-0.9,0.3
	c0.3-4,1.8-7.7,4.2-10.6L11.5,17.2z M6.1,29.2c0.3,0.2,0.6,0.3,0.9,0.3h0.8c0.7,8.3,7.3,14.9,15.6,15.6v0.7c0,0.4,0.1,0.7,0.3,0.9
	C14.3,46.2,6.8,38.6,6.1,29.2z M26.3,46.8c0.2-0.3,0.3-0.6,0.3-0.9v-0.7c8.3-0.8,14.8-7.3,15.6-15.6h0.8c0.3,0,0.7-0.1,0.9-0.3
	C43.2,38.6,35.7,46.2,26.3,46.8z"/>
</svg>
