<?xml version="1.0" encoding="utf-8"?>
<!-- Generator: Adobe Illustrator 22.0.0, SVG Export Plug-In . SVG Version: 6.00 Build 0)  -->
<svg version="1.1" id="Capa_1" xmlns="http://www.w3.org/2000/svg" xmlns:xlink="http://www.w3.org/1999/xlink" x="0px" y="0px"
	 viewBox="0 0 50 50" style="enable-background:new 0 0 50 50;" xml:space="preserve">
<g>
	<polygon style="fill:#FFFFFF;" points="30.8,23 31.7,22.8 31.7,20.6 32.4,20.4 31.2,18.9 30.1,21.1 30.8,20.9 	"/>
	<polygon style="fill:#FFFFFF;" points="32.8,20.3 33.5,20.1 33.5,22.2 34.4,21.9 34.4,19.8 35,19.6 33.9,18.1 	"/>
	<polygon style="fill:#FFFFFF;" points="30.2,24.7 35,23.2 35,22.3 30.2,23.7 	"/>
	<path style="fill:#FFFFFF;" d="M36.5,42.2c4.2-4.4,10.9-11.6,11-13.2c0.1-1.7-1.6-10-2.1-11.7c-0.4-1.5-1.8-2.2-2.9-2
		c-1,0.2-1.8,1.1-1.6,2.7c0.3,2,0.8,7.8,1,9.3c-1.2,1.3-4,4.2-5,4.7c-0.4,0.2-0.9,0.2-1.2,0.1l3.2-3.1c1-1,1.1-2.3,0.3-3.3
		c-0.4-0.5-1-0.9-1.6-1.1c0,0,0-0.1,0-0.1v-13l3.1-3.9c0.2-0.2,0.2-0.5,0.2-0.7c0-0.1-0.1-0.1-0.1-0.2c0.2-0.3,0.2-0.6,0-0.9
		c-0.2-0.3-0.5-0.4-0.9-0.3l-1.1,0.3l-9.4-3.6c-0.3-0.1-0.7,0-1,0.3l-2.7,3.4l-2.7-3.4c-0.2-0.3-0.6-0.4-1-0.3l-9.4,3.6l-1.1-0.3
		c-0.3-0.1-0.7,0.1-0.9,0.3c-0.2,0.3-0.2,0.6,0,0.9c0,0.1-0.1,0.1-0.1,0.2c-0.1,0.3,0,0.5,0.2,0.7l3.2,4v13c0,0.1,0,0.1,0,0.2
		c-1-0.4-2.2,0.1-2.9,1c-0.8,1.1-0.7,2.4,0.3,3.3l3.2,3.1c-0.4,0.1-0.8,0.1-1.2-0.1c-1-0.5-3.5-3-5-4.7C8.2,25.8,8.7,20,9,18
		c0.2-1.6-0.6-2.5-1.6-2.7c-1.1-0.2-2.5,0.5-2.8,2C4.1,19,2.4,27.3,2.5,29c0.1,1.6,6.8,8.8,11,13.2l-1.3,4.7c-0.1,0.3,0,0.5,0.1,0.7
		c0.2,0.2,0.4,0.3,0.7,0.3h10.8c0.2,0,0.5-0.1,0.6-0.3c0.2-0.2,0.2-0.4,0.2-0.6l-0.4-6.6c0,0,0-0.1,0-0.1l-1.8-9
		c0-0.2-0.2-0.4-0.3-0.5c-0.2-0.2-4.8-3.7-7.1-5.3l10.1,3.4c0.1,0.1,0.3,0.1,0.5,0.1c0,0,0,0,0,0c0,0,0,0,0,0c0.2,0,0.3-0.1,0.5-0.1
		l7.7-2.6c-2.4,1.8-5.8,4.3-6,4.5c-0.2,0.1-0.3,0.3-0.3,0.5l-1.8,9c0,0,0,0.1,0,0.1l-0.4,6.6c0,0.2,0.1,0.5,0.2,0.6s0.4,0.3,0.6,0.3
		H37c0.3,0,0.5-0.1,0.7-0.3c0.2-0.2,0.2-0.5,0.1-0.7L36.5,42.2z M21.7,9.5l2.1,3.7l-9-3c0,0,0,0,0,0l-1.7-2.6L21.7,9.5z M29.6,9.5
		l8.6-2l-1.8,2.6l-9,3L29.6,9.5z M26.5,15.3l9.3-2.9V24l-9.3,3.2V15.3z M29.3,3.9l6.5,2.5l-6.7,1.5l-2.2-1.1L29.3,3.9z M27.8,9.1
		l-1.4,2.4l0-3L27.8,9.1z M24.8,11.5l-1.4-2.4l1.4-0.7L24.8,11.5z M21.9,3.9l2.4,2.9l-2.2,1.1l-6.7-1.5L21.9,3.9z M22.6,40.7
		l0.3,5.6h-8.8l1.2-4.1c0.1-0.3,0-0.6-0.2-0.8C10,36.1,4.5,29.9,4.2,28.9c-0.1-1.4,1.5-9.1,2-11.2c0.2-0.6,0.6-0.8,0.9-0.8
		c0.4,0.1,0.3,0.6,0.3,0.8c-0.3,2.3-1,9.5-1,9.8c0,0.2,0.1,0.5,0.2,0.6c0.4,0.5,4.1,4.5,5.7,5.4c2,1.1,3.9-0.5,4-0.5
		c0.2-0.2,0.3-0.4,0.3-0.6c0-0.2-0.1-0.5-0.3-0.6l-4.1-3.9c-0.2-0.2-0.5-0.6-0.1-1.1c0.3-0.4,0.8-0.5,0.9-0.5
		c0.9,0.5,5.7,4.2,7.7,5.7L22.6,40.7z M15.4,12.5l9.4,2.9v11.8L15.4,24V12.5z M27,46.3l0.3-5.6l1.8-8.6c2.1-1.6,6.9-5.2,7.7-5.7
		c0.1-0.1,0.6,0.1,0.9,0.5c0.4,0.5,0.1,0.9-0.1,1.1l-4,3.9c-0.2,0.2-0.3,0.4-0.3,0.6s0.1,0.5,0.3,0.6c0.1,0.1,2,1.6,4,0.5
		c1.6-0.9,5.3-4.9,5.7-5.4c0.2-0.2,0.2-0.4,0.2-0.6c0-0.3-0.7-7.5-1-9.8c0-0.2-0.1-0.8,0.3-0.8c0.3-0.1,0.7,0.1,0.9,0.8
		c0.5,2.1,2.1,9.8,2,11.1c-0.3,1.1-5.8,7.2-10.9,12.5c-0.2,0.2-0.3,0.5-0.2,0.8l1.2,4.1H27z"/>
</g>
</svg>
