<?xml version="1.0" encoding="utf-8"?>
<!-- Generator: Adobe Illustrator 22.0.0, SVG Export Plug-In . SVG Version: 6.00 Build 0)  -->
<svg version="1.1" id="Capa_1" xmlns="http://www.w3.org/2000/svg" xmlns:xlink="http://www.w3.org/1999/xlink" x="0px" y="0px"
	 viewBox="0 0 50 50" style="enable-background:new 0 0 50 50;" xml:space="preserve">
<path style="fill:#FFFFFF;" d="M49,30.3v-7.1l-3.9-1.1v-1c0-1-0.8-1.8-1.8-1.8s-1.8,0.8-1.8,1.8v0l-12.5-3.4V9.5c0-2.7-1.8-5-4.1-5
	c-2.2,0-4.1,2.2-4.1,5v8.2L8.4,21.1v0c0-1-0.8-1.8-1.8-1.8c-1,0-1.8,0.8-1.8,1.8v1l-3.9,1v7.1l19.9-2.6v8.2l-5.4,3.4v6.3l9.4-2.6
	l9.4,2.6v-6.3l-5.4-3.4v-8.2L49,30.3z M47.4,24.4v4l-2.5-0.3c0.2-0.3,0.3-0.6,0.3-1v-3.3L47.4,24.4z M29.1,19.4l12.5,3.4v4.3
	c0,0.2,0,0.4,0.1,0.6L29.1,26V19.4z M2.6,24.4l2.2-0.6v3.3c0,0.4,0.1,0.7,0.3,1l-2.5,0.3V24.4z M8.3,27.6c0.1-0.2,0.1-0.4,0.1-0.6
	v-4.3l12.5-3.4V26L8.3,27.6z M32.8,40.1v3.2L25,41.1l-7.8,2.2v-3.2l5.4-3.4v-9.3l0,0V17.3l0,0V9.5c0-1.8,1.1-3.3,2.4-3.3
	c1.3,0,2.4,1.5,2.4,3.3v7.8v10.1v9.3L32.8,40.1z"/>
</svg>
