<?xml version="1.0" encoding="utf-8"?>
<!-- Generator: Adobe Illustrator 22.0.0, SVG Export Plug-In . SVG Version: 6.00 Build 0)  -->
<svg version="1.1" id="Capa_1" xmlns="http://www.w3.org/2000/svg" xmlns:xlink="http://www.w3.org/1999/xlink" x="0px" y="0px"
	 viewBox="0 0 150.5 41" style="enable-background:new 0 0 150.5 41;" xml:space="preserve">
<g>
	<path style="fill:#FFFFFF;" d="M53.7,12.3c0.9,0,1.7,0.1,2.4,0.4c0.7,0.2,1.3,0.4,1.9,0.4c0.6,0,0.9-0.2,0.9-0.6h0.3l0.3,4.5h-0.3
		c0-0.3-0.1-0.7-0.2-1.1c-0.2-0.4-0.4-0.9-0.8-1.4c-0.4-0.5-0.9-0.9-1.7-1.3s-1.7-0.5-2.8-0.5c-2,0-3,0.7-3,2.1
		c0,1.3,0.6,2.4,1.7,3.4l5.6,4.7c2,1.4,2.9,3,2.9,4.8c0,1.5-0.9,2.8-2.6,3.7c-1.5,0.8-3.3,1.2-5.6,1.2c-1.5,0-2.7-0.3-3.7-1
		c-0.3-0.2-0.6-0.3-0.8-0.3c-0.4,0-0.7,0.2-0.9,0.7c-0.1,0.1-0.1,0.3-0.1,0.5h-0.3l0.1-4.5h0.3c0,0.2,0,0.5,0.1,0.8
		c0.2,0.8,0.8,1.6,1.5,2.3c0.4,0.4,0.9,0.7,1.6,0.9c0.7,0.2,1.4,0.4,2.2,0.4c1.1,0,1.9-0.3,2.6-0.8c0.7-0.6,1-1.2,1-2
		c0-1.3-0.4-2.2-1.2-2.9l-5.6-4.7c-1.7-1.4-2.6-3.1-2.6-4.8c0-1.4,0.7-2.5,2.1-3.4C50.3,12.7,51.9,12.3,53.7,12.3z"/>
	<path style="fill:#FFFFFF;" d="M69.7,32.4c-2.6,0-4.6-0.7-6-2c-1.4-1.3-2.1-3.2-2.1-5.7c0-2.4,0.7-4.3,2.1-5.7c1.4-1.3,3.4-2,6-2
		c2.6,0,4.6,0.7,6,2c1.4,1.4,2.1,3.3,2.1,5.7c0,2.5-0.7,4.4-2.1,5.7C74.3,31.7,72.3,32.4,69.7,32.4z M69.7,32.1
		c1.5,0,2.4-0.5,2.8-1.5c0.4-1,0.6-3,0.6-5.9c0-2.9-0.2-4.8-0.6-5.9c-0.4-1-1.4-1.5-2.8-1.5c-1.7,0-2.7,0.6-3.1,1.9
		c-0.3,1-0.4,2.9-0.4,5.5s0.1,4.5,0.4,5.5C67,31.4,68,32.1,69.7,32.1z"/>
	<path style="fill:#FFFFFF;" d="M84.8,12.5v17.4c0,1.4,0.8,2,2.3,2v0.3h-9.3v-0.3c1.5,0,2.3-0.7,2.3-2V12.5c0-1.4-0.8-2-2.3-2v-0.3
		h5.8C84.4,10.1,84.8,10.9,84.8,12.5z"/>
	<path style="fill:#FFFFFF;" d="M94.1,35.7c0,1.4,0.8,2,2.3,2V38h-9.3v-0.3c1.6,0,2.3-0.7,2.3-2V19.4c0-1.4-0.8-2-2.3-2v-0.3H93
		c0.2,0,0.4,0.2,0.6,0.5C93.8,17.9,94,18,94,18c1-0.7,2.1-1,3-1c2.3,0,4.1,0.7,5.5,2c1.4,1.4,2.1,3.3,2.1,5.7s-0.7,4.3-2,5.6
		c-1.4,1.4-3.2,2-5.5,2c-1,0-1.9-0.3-2.9-1V35.7z M99.9,24.7c0-3.3-0.1-5.2-0.3-5.8c-0.5-1.1-1.3-1.7-2.6-1.7c-1,0-2,0.4-3,1.1
		c0,0.3,0.1,0.7,0.1,1.1V31c0.9,0.7,1.9,1,2.9,1c1.3,0,2.1-0.6,2.6-1.7C99.8,29.8,99.9,27.9,99.9,24.7z"/>
	<path style="fill:#FFFFFF;" d="M111.6,12.5v17.4c0,1.4,0.8,2,2.3,2v0.3h-9.3v-0.3c1.5,0,2.3-0.7,2.3-2V12.5c0-1.4-0.8-2-2.3-2v-0.3
		h5.8C111.2,10.1,111.6,10.9,111.6,12.5z"/>
	<path style="fill:#FFFFFF;" d="M132.8,32.2H127c-0.2,0-0.4-0.2-0.6-0.5c-0.2-0.3-0.4-0.5-0.4-0.5c-1,0.7-2.2,1.1-3.6,1.1
		c-2.5,0-4.4-0.6-5.9-1.7c-1.5-1.1-2.2-2.3-2.2-3.7c0-1.4,0.7-2.6,2.2-3.6c1.5-1.1,3.4-1.6,5.9-1.6c1.2,0,2.4,0.2,3.5,0.7v-0.7
		c0-3-1.3-4.5-3.8-4.5c-1.6,0-3.1,0.4-4.6,1.2l-0.2-0.3c1.5-0.9,3.1-1.3,4.8-1.3c5.6,0,8.4,2.6,8.4,7.7v5.2c0,1.4,0.8,2,2.3,2V32.2z
		 M125.8,22.8c-1.1-0.5-2.3-0.8-3.5-0.8c-1.4,0-2.4,0.5-3,1.6c-0.3,0.5-0.5,1.6-0.5,3.3c0,2.1,0.3,3.4,0.8,4
		c0.6,0.7,1.5,1.1,2.7,1.1c1.5,0,2.7-0.4,3.5-1.1c0-1.2-0.1-2.4-0.1-3.5V22.8z"/>
	<path style="fill:#FFFFFF;" d="M138.6,19.3l3.4,8.3l3.3-8.3c0.1-0.3,0.2-0.6,0.2-0.9c0-0.6-0.6-0.9-1.7-0.9v-0.3h3.8v0.3
		c-0.8,0-1.5,0.7-2,2l-3.5,8.6l-1.6,4.1l-1.7,4.1c-0.7,1.4-1.5,2.1-2.5,2.1c-0.6,0-1.2-0.2-1.6-0.7s-0.7-1-0.7-1.6
		c0-0.6,0.2-1.2,0.7-1.6c0.4-0.5,1-0.7,1.6-0.7c0.6,0,1.1,0.2,1.6,0.6c0.4,0.3,0.7,0.5,0.9,0.5c0.1,0,0.2-0.1,0.3-0.2l0.9-2.4h-0.6
		c-0.4,0-0.7-0.1-0.8-0.3c0,0-0.3-0.6-0.7-1.8l-4.3-10.7c-0.4-0.9-0.7-1.5-1-1.7c-0.3-0.2-0.7-0.3-1.4-0.3v-0.3h5.5
		C137.5,17.1,138.1,17.8,138.6,19.3z"/>
</g>
<g>
	<path style="fill:#FFFFFF;" d="M16.3,37.6c0,0,11.7-3,9.5-10.1c-0.8-2.6-2.6-4-4.7-5c-2.5-1.2-9.9-2.8-12.6-5.8
		c-0.5-0.6-1.9-1.8-1.2-3.9c1.2-3.5,7.4-7.1,13.4-8.2c0,0-5.8,3.2-0.6,6.5c5.2,3.2,16.1,9.4,11.8,17.9
		C27.7,37.3,16.3,37.6,16.3,37.6z"/>
	<linearGradient id="SVGID_1_" gradientUnits="userSpaceOnUse" x1="2.2719" y1="26.8386" x2="22.2954" y2="26.8386">
		<stop  offset="0" style="stop-color:#FECB09"/>
		<stop  offset="1" style="stop-color:#ED6F26"/>
	</linearGradient>
	<path style="fill:url(#SVGID_1_);" d="M22.3,30.1c0.2,1.5-0.5,3.1-1.5,4.2c-1.1,1.1-2.6,1.7-4.1,2c-4.5,0.9-9.4-0.9-12.1-4.6
		C1.9,28,0.7,20.9,6,17.2c-1.8,2.3-2.9,5.4-1.5,8.4c1,2.1,3.2,3.7,5.5,3.7c3.1-0.1,5.7-3.1,8.7-2.7C20.5,26.8,22,28.3,22.3,30.1z"/>
	<path style="fill:#419634;" d="M21,9.8c-0.7-0.9-0.9-2.3-0.3-3.3c0.1-0.1,0.1-0.2,0.2-0.3c1.3-1.6,5.8-1.2,5.8-5.9
		c0,0,2.5,7.7-2.4,9.9C22.7,11.1,21.7,10.6,21,9.8z"/>
	<linearGradient id="SVGID_2_" gradientUnits="userSpaceOnUse" x1="2.8591" y1="28.5524" x2="13.1893" y2="28.5524">
		<stop  offset="0" style="stop-color:#FFD401"/>
		<stop  offset="1" style="stop-color:#FFD401;stop-opacity:0"/>
	</linearGradient>
	<path style="fill:url(#SVGID_2_);" d="M3.1,21.9c0,0-0.8,8.8,8,10.8c4.7,1.1-0.1,2.6-0.1,2.6S1.2,32.7,3.1,21.9z"/>
	
		<linearGradient id="SVGID_3_" gradientUnits="userSpaceOnUse" x1="1378.116" y1="-779.3671" x2="1374.9994" y2="-782.5599" gradientTransform="matrix(-0.3373 1.3756 1.0822 0.7544 1334.3311 -1298.312)">
		<stop  offset="0.2724" style="stop-color:#419634"/>
		<stop  offset="1" style="stop-color:#FFFFFF;stop-opacity:0"/>
	</linearGradient>
	<path style="fill:url(#SVGID_3_);" d="M22.6,7.6c-0.4-0.5-0.4-1.1,0-1.6c0,0,0.1-0.1,0.1-0.1c0.9-0.8,3.6-0.7,3.9-2.9
		c0,0,1,3.8-2.1,4.9C23.5,8.3,22.9,8,22.6,7.6z"/>
</g>
</svg>
